<?xml version="1.0" ?><svg data-name="Layer 3" id="Layer_3" viewBox="0 0 32 32" xmlns="http://www.w3.org/2000/svg"><defs><style>.cls-1{fill:none;stroke:#3c4044;stroke-linecap:round;stroke-linejoin:round;}</style></defs><title/><polygon class="cls-1" points="20.19 18.36 16.85 18.36 16.5 29 4 29 4.5 11.9 20 11.9 20.08 14.81 20.19 18.36"/><path class="cls-1" d="M7.5,15.1V10A4.92,4.92,0,0,1,12.25,5h0A4.92,4.92,0,0,1,17,10V15.1"/><polygon class="cls-1" points="28 29 16.5 29 16.85 18.36 27.65 18.36 28 29"/><path class="cls-1" d="M18.94,20.35V17.19A3.24,3.24,0,0,1,22.25,14h0a3.24,3.24,0,0,1,3.31,3.16v3.16"/></svg>